<svg xmlns="http://www.w3.org/2000/svg" width="134" height="49" viewBox="0 0 134 49" fill="none">
<path d="M33.3933 0.148057C38.0025 0.148057 41.739 3.88455 41.739 8.49374C41.739 9.20284 41.1642 9.77769 40.4551 9.77769L14.4057 9.77769C13.5875 9.77769 12.9242 9.1144 12.9242 8.2962V1.62954C12.9242 0.811338 13.5875 0.148056 14.4057 0.148056L33.3933 0.148057Z" fill="#6854FF"/>
<path d="M9.34396 0.148057C4.73477 0.148057 0.998283 3.88454 0.998283 8.49374V27.4814C0.998283 28.2996 1.66157 28.9629 2.47976 28.9629H9.14643C9.96463 28.9629 10.6279 28.2996 10.6279 27.4814V1.43201C10.6279 0.722901 10.0531 0.148057 9.34396 0.148057Z" fill="#6854FF"/>
<path d="M30.5538 24.1481C30.5538 27.2163 28.0665 29.7036 24.9983 29.7036C21.93 29.7036 19.4427 27.2163 19.4427 24.1481C19.4427 21.0798 21.93 18.5925 24.9983 18.5925C28.0665 18.5925 30.5538 21.0798 30.5538 24.1481Z" fill="#6854FF"/>
<path d="M41.739 39.8024C41.739 44.4116 38.0025 48.1481 33.3933 48.1481C32.6842 48.1481 32.1094 47.5732 32.1094 46.8641L32.1094 20.8147C32.1094 19.9965 32.7727 19.3332 33.5909 19.3332L40.2575 19.3332C41.0757 19.3332 41.739 19.9965 41.739 20.8147L41.739 39.8024Z" fill="#6854FF"/>
<path d="M0.998283 32.6172C0.998283 37.2264 4.73477 40.9629 9.34396 40.9629H28.3316C29.1498 40.9629 29.8131 40.2996 29.8131 39.4814V32.8147C29.8131 31.9965 29.1498 31.3332 28.3316 31.3332H2.28223C1.57313 31.3332 0.998283 31.9081 0.998283 32.6172Z" fill="#6854FF"/>
<path fill-rule="evenodd" clip-rule="evenodd" d="M88.8901 17.0406V5.97088H85.9981V7.34574C85.2634 6.23173 83.7938 5.7339 82.5612 5.7339C81.0204 5.7339 79.6932 6.27904 78.5789 7.34574C77.4649 8.41243 76.9198 9.78729 76.9198 11.4939C76.9198 13.2006 77.4886 14.5991 78.6026 15.6658C79.7169 16.7325 81.0441 17.2539 82.5612 17.2539C83.7938 17.2539 85.3346 16.6613 85.9981 15.6183V17.0406H88.8901ZM85.9981 11.4939C86.1167 14.2436 82.5612 15.4051 80.8072 13.651C80.2146 13.082 79.9064 12.3709 79.9064 11.4939C79.9064 10.6169 80.2146 9.90578 80.8072 9.36064C81.4235 8.79163 82.1344 8.50719 82.9643 8.50719C83.7701 8.50719 84.481 8.76804 85.0736 9.31318C85.6899 9.85832 85.9981 10.5694 85.9981 11.4939Z" fill="white"/>
<path d="M104.564 8.55465C105.797 8.55465 106.65 9.47913 106.65 11.0198V17.0406H109.518V10.7116C109.518 7.48795 107.977 5.7339 105.252 5.7339C103.711 5.7339 102.549 6.42126 101.767 7.81984C101.174 6.53989 100.013 5.85239 98.2351 5.75763C97.0025 5.75763 95.6278 6.37395 95.059 7.60644V5.97088H92.1672V17.0406H95.059V11.1384C95.059 9.36064 96.0546 8.55465 97.3819 8.55465C98.5433 8.55465 99.3966 9.4554 99.4203 10.9487V17.0406H102.312V11.1384C102.312 9.50285 103.213 8.55465 104.564 8.55465Z" fill="white"/>
<path fill-rule="evenodd" clip-rule="evenodd" d="M123.32 11.4702C123.32 9.76356 122.774 8.3887 121.708 7.32201C120.641 6.25531 119.314 5.7339 117.702 5.7339C116.09 5.7339 114.739 6.25531 113.625 7.32201C112.511 8.3887 111.966 9.76356 111.966 11.4702C111.966 13.1769 112.511 14.5753 113.625 15.6658C114.739 16.7325 116.09 17.2776 117.702 17.2776C119.906 17.2776 121.921 16.4006 122.869 14.5991L120.665 13.4139C120.167 14.3384 119.053 14.8362 117.891 14.8362C116.256 14.8362 115.023 13.9117 114.834 12.4658H123.272L123.276 12.3946L123.277 12.3836L123.278 12.3732V12.3689C123.289 12.2151 123.299 12.0658 123.306 11.9211C123.31 11.8486 123.313 11.7772 123.315 11.7069C123.318 11.6265 123.32 11.5476 123.32 11.4702ZM114.81 10.4984C115.023 9.05248 116.185 8.15173 117.726 8.15173C119.171 8.15173 120.285 9.00502 120.499 10.4984H114.81Z" fill="white"/>
<path d="M128.646 13.1294C128.646 10.0005 129.571 8.37091 131.42 8.37091C132.083 8.37091 132.326 8.37091 133.104 8.57837L133.586 6.2598C133.379 6.15144 133.152 6.06362 132.906 5.99793C132.56 5.90549 132.176 5.85688 131.76 5.85688C130.409 5.85688 129.438 6.33387 128.646 7.48202V5.97088H125.755V17.0406H128.646V13.1294Z" fill="white"/>
<path fill-rule="evenodd" clip-rule="evenodd" d="M58.3333 32.614C58.3333 34.9132 59.1391 36.9043 60.7273 38.5399C62.339 40.1754 64.3066 40.9813 66.6057 40.9813C68.9049 40.9813 70.8724 40.1754 72.4841 38.5399C74.096 36.9043 74.9019 34.9132 74.9019 32.614C74.9019 30.291 74.096 28.3236 72.4841 26.688C70.8962 25.0525 68.9286 24.2229 66.6057 24.2229C64.2828 24.2229 62.3156 25.0525 60.7273 26.688C59.1391 28.3236 58.3333 30.291 58.3333 32.614ZM62.8607 28.7977C63.8798 27.731 65.1361 27.2094 66.6057 27.2094C68.0753 27.2094 69.3079 27.731 70.3273 28.7977C71.3464 29.8407 71.8678 31.1206 71.8678 32.614C71.8678 34.1073 71.3464 35.3873 70.3273 36.4302C69.3079 37.4732 68.0753 37.9948 66.6057 37.9948C65.1361 37.9948 63.8798 37.4732 62.8607 36.4302C61.8413 35.3873 61.3436 34.1073 61.3436 32.614C61.3436 31.1206 61.8413 29.8407 62.8607 28.7977Z" fill="white"/>
<path d="M80.359 34.8421C80.359 33.0406 81.3546 32.2583 82.7768 32.2583C84.0806 32.2583 84.8864 33.1354 84.8864 34.7236V40.7443H87.7781V34.2021C87.7781 31.0969 86.2848 29.4376 83.6538 29.4376C82.3265 29.4376 80.9516 30.1724 80.359 31.3103V29.6747H77.4672V40.7443H80.359V34.8421Z" fill="white"/>
<path fill-rule="evenodd" clip-rule="evenodd" d="M101.583 35.174C101.583 33.4673 101.037 32.0924 99.9707 31.0259C98.9041 29.9592 97.5769 29.4376 95.9649 29.4376C94.353 29.4376 93.002 29.9592 91.888 31.0259C90.7737 32.0924 90.2286 33.4673 90.2286 35.174C90.2286 36.8806 90.7737 38.2792 91.888 39.3695C93.002 40.4362 94.353 40.9813 95.9649 40.9813C98.1695 40.9813 100.184 40.1043 101.132 38.3029L98.9278 37.1177C98.4302 38.0421 97.3159 38.5399 96.1545 38.5399C94.5191 38.5399 93.2864 37.6154 93.0969 36.1695H101.535L101.552 35.915L101.563 35.7364L101.568 35.6529C101.572 35.5829 101.575 35.5141 101.577 35.4463C101.581 35.3535 101.583 35.2628 101.583 35.174ZM93.0732 34.2021C93.2864 32.7562 94.4479 31.8554 95.9887 31.8554C97.4345 31.8554 98.5485 32.7087 98.7621 34.2021H93.0732Z" fill="white"/>
<path d="M105.582 37.3784C104.563 37.3784 103.733 38.1607 103.733 39.1799C103.733 40.1992 104.563 40.9813 105.582 40.9813C106.625 40.9813 107.478 40.2229 107.478 39.1799C107.478 38.137 106.625 37.3784 105.582 37.3784Z" fill="white"/>
<path d="M66.6532 0.519058C69.0472 0.519058 71.1567 1.49092 72.579 3.00792L70.3509 4.95164C69.4027 3.97978 68.1228 3.36353 66.6532 3.36353C63.6665 3.36353 61.3674 5.85239 61.3674 8.91019C61.3674 11.9443 63.6665 14.4806 66.6532 14.4806C68.8338 14.4806 70.9909 13.1768 71.062 11.0909H66.582V8.60203H74.5464C74.5464 14.5753 71.3464 17.2776 66.6532 17.2776C61.9835 17.2776 58.3333 13.5087 58.3333 8.91019C58.3333 4.26421 61.9835 0.519058 66.6532 0.519058Z" fill="white"/>
</svg>