<svg width="2049px" height="580px" viewBox="0 0 2049 580" xmlns="http://www.w3.org/2000/svg" xmlns:xlink="http://www.w3.org/1999/xlink"><title>Bitspawn Logo</title><defs><linearGradient x1="0.000352126138%" y1="49.9995786%" x2="100%" y2="49.9995786%" id="linearGradient-1"><stop stop-color="#C683E4" offset="0%"></stop><stop stop-color="#00FCA9" offset="100%"></stop></linearGradient><linearGradient x1="122282.988%" y1="108628.539%" x2="203827.036%" y2="108628.539%" id="linearGradient-2"><stop stop-color="#C683E4" offset="0%"></stop><stop stop-color="#00FCA9" offset="100%"></stop></linearGradient></defs><g id="Logos-and-icons" stroke="none" stroke-width="1" fill="none" fill-rule="evenodd"><g id="Bitspawn-Logo" fill-rule="nonzero"><g id="Bitspawn-preferential-version-logotype-1" transform="translate(697.906083, 175.000000)"><path d="M1326.56,3.58992989 L783.96,3.58992989 L778.62,12.2999299 L770.19,26.0799299 C750.41,11.1499299 726.25,3.58992989 698.34,3.58992989 L585.93,3.58992989 C573.351634,1.07688869 560.546263,-0.122881767 547.72,0.00992988527 C536.023165,-0.0220394285 524.355485,1.17791156 512.91,3.58992989 L221.42,3.58992989 L220.58,7.49992989 C210.549603,4.85178978 200.213944,3.53713693 189.84,3.58992989 L58.46,3.58992989 L55.4,18.0499299 L49.27,46.9799299 L28.32,145.92993 L19,189.92993 L14,213.60993 L4.66,257.64993 L0,279.64993 L158.37,279.64993 C159.88,279.64993 161.37,279.64993 162.87,279.57993 L162.87,279.64993 L435.28,279.64993 L436.86,272.17993 C444.501782,274.998556 452.348013,277.228397 460.33,278.84993 C474.408452,281.775496 488.750794,283.243241 503.13,283.22993 C516.215126,283.299279 529.276176,282.100341 542.13,279.64993 L796.24,279.64993 L796.98,278.42993 L797.15,279.64993 L1265.66,279.64993 L1269.66,266.81993 L1277.66,241.14993 L1329.39,74.4699299 L1344.07,27.1799299 L1351.41,3.52992989 L1326.56,3.58992989 Z M1311.88,69.1299299 L1260.15,235.79993 L1252.15,261.46993 L813.15,261.46993 L808.97,229.74993 L808.15,223.47993 L798.37,241.09993 L798.01,241.74993 L797.63,242.37993 L796.63,243.95993 L785.96,261.46993 L541.26,261.46993 L541.26,261.24993 C528.709507,263.880145 515.912716,265.154124 503.09,265.04993 C489.967038,265.064383 476.877646,263.723944 464.03,261.04993 C449.67,258.04993 438.1,253.85993 428.65,248.23993 L423.85,245.38993 L420.46,261.46993 L185.36,261.46993 L186.02,258.37993 C176.953919,260.476188 167.675174,261.513126 158.37,261.46993 L22.51,261.46993 L31.83,217.46993 L36.83,193.78993 L46.16,149.78993 L67.11,50.7899299 L73.24,21.8699299 L189.84,21.8699299 C206.36,21.8699299 221.13,25.4199299 233.96,32.3399299 L236.19,21.8699299 L514.89,21.8699299 C525.66486,19.4516637 536.677171,18.2508086 547.72,18.2899299 C559.494429,18.1553175 571.250001,19.2681917 582.79,21.6099299 C585.79,22.2399299 588.68,23.0099299 591.57,23.8499299 L592,21.8499299 L698.34,21.8499299 C722.58,21.8499299 743.34,28.3799299 760.01,41.2799299 C765.184789,45.2777542 769.825922,49.9222486 773.82,55.0999299 L783.51,39.2799299 L794.18,21.8499299 L1326.56,21.8499299 L1311.88,69.1299299 Z" id="Shape" fill="#C683E4"></path><polygon id="Path" fill="#FFFFFF" points="1127.77 58.3099299 1175.66 58.3099299 1200.43 145.57993 1227.66 58.3099299 1277.02 58.3099299 1225.28 224.98993 1177.66 224.98993 1152.41 137.70993 1125.41 224.98993 1076.06 224.98993"></polygon><path d="M225.25,123.64993 C229.349083,118.025135 232.233495,111.609276 233.72,104.80993 C234.44441,101.439324 234.842912,98.0068495 234.91,94.5599299 C234.91,83.1132632 230.656667,74.2099299 222.15,67.8499299 C213.643333,61.4899299 202.873333,58.3099299 189.84,58.3099299 L102.84,58.3099299 L81.89,157.30993 L158.4,157.30993 C163.96,157.30993 168.053333,158.263263 170.68,160.16993 C173.306667,162.076597 174.616667,165.016597 174.61,168.98993 C174.646472,170.669137 174.488759,172.346934 174.14,173.98993 C172.86,179.86993 170.473333,184.003263 166.98,186.38993 C163.486667,188.776597 158.486667,189.966597 151.98,189.95993 L74.98,189.95993 L67.56,224.95993 L158.41,224.95993 C175.743333,224.95993 190.17,220.50993 201.69,211.60993 C213.21,202.70993 220.72,190.233263 224.22,174.17993 C225.022834,170.41646 225.421759,166.578061 225.41,162.72993 C225.41,156.84993 224.1,151.883263 221.48,147.82993 C218.86,143.776597 214.86,140.476597 209.48,137.92993 C215.704842,134.36272 221.084496,129.491352 225.25,123.64993 Z M182.93,107.90993 C181.823333,113.14993 179.596667,116.963263 176.25,119.34993 C172.92,121.73993 168.54,122.92993 163.14,122.92993 L138.34,122.92993 L144.78,93.3599299 L169.34,93.3599299 C174.42,93.3599299 178.086667,94.0265966 180.34,95.3599299 C182.593333,96.6932632 183.706667,99.0265966 183.68,102.35993 C183.61869,104.230563 183.367399,106.09012 182.93,107.90993 L182.93,107.90993 Z" id="Shape" fill="#FFFFFF"></path><polygon id="Path" fill="#FFFFFF" points="368.03 99.7999299 323.2 99.7999299 332.02 58.3099299 471.02 58.3099299 462.2 99.7999299 417.38 99.7999299 390.92 224.97993 341.56 224.97993"></polygon><path d="M471.53,225.33993 C461.283333,223.19993 453.216667,220.37993 447.33,216.87993 L456.63,173.23993 C464.416532,178.079295 472.898143,181.697891 481.78,183.96993 C490.377473,186.285332 499.236413,187.488481 508.14,187.54993 C521.96,187.54993 528.873333,183.576597 528.88,175.62993 C528.88,172.44993 527.25,169.706597 523.99,167.39993 C520.73,165.093263 514.253333,161.636597 504.56,157.02993 C492.793333,151.46993 484.17,145.46993 478.69,139.02993 C473.243288,132.704339 470.313926,124.596093 470.46,116.24993 C470.538941,112.647923 470.940548,109.060238 471.66,105.52993 C474.993333,90.1099299 483.326667,77.7765966 496.66,68.5299299 C509.993333,59.2832632 526.993333,54.6732632 547.66,54.6999299 C556.858821,54.5758249 566.045415,55.4137119 575.07,57.1999299 C582.723514,58.8203144 590.1098,61.5135818 597.01,65.1999299 L587.95,107.39993 C575.961585,99.8427415 562.061298,95.8732135 547.89,95.9599299 C541.063333,95.9599299 535.46,97.0332632 531.08,99.1799299 C526.7,101.326597 524.536667,104.483263 524.59,108.64993 C524.59,111.50993 526.136667,113.973263 529.23,116.03993 C532.323333,118.106597 537.85,120.886597 545.81,124.37993 L550.34,126.28993 C562.74,131.84993 571.523333,137.453263 576.69,143.09993 C581.856667,148.746597 584.44,155.77993 584.44,164.19993 C584.40539,168.937258 583.845297,173.656123 582.77,178.26993 C579.436667,194.32993 571.41,206.72993 558.69,215.46993 C545.97,224.20993 527.45,228.580088 503.13,228.580088 C492.512988,228.595163 481.923016,227.509355 471.53,225.33993 Z" id="Path" fill="#FFFFFF"></path><path d="M621.56,58.3099299 L698.34,58.3099299 C714.393333,58.3099299 727.506667,62.2465966 737.68,70.1199299 C747.853333,77.9932632 752.94,89.1599299 752.94,103.61993 C752.799678,108.350026 752.240829,113.058409 751.27,117.68993 C747.143333,137.243263 738.476667,152.063263 725.27,162.14993 C712.063333,172.236597 694.656667,177.286597 673.05,177.29993 L645.66,177.29993 L640.29,202.87993 L635.65,224.97993 L586.27,224.97993 L621.56,58.3099299 Z M672.11,138.18993 C679.736667,138.18993 686.016667,136.67993 690.95,133.65993 C695.883333,130.63993 699.14,125.306597 700.72,117.65993 C701.357572,115.244009 701.693462,112.758422 701.72,110.25993 C701.72,105.49993 700.053333,102.166597 696.72,100.25993 C693.386667,98.3532632 688.053333,97.3999299 680.72,97.3999299 L662.57,97.3999299 L653.99,138.16993 L672.11,138.18993 Z" id="Shape" fill="#FFFFFF"></path><polygon id="Path" fill="#FFFFFF" points="882.51 58.3099299 933.51 58.3099299 950.65 145.57993 978.82 58.3099299 1014.66 58.3099299 1028.96 145.81993 1057.81 58.3099299 1109.08 58.3099299 1053.51 224.97993 1009.64 224.97993 992.81 136.51993 964.33 224.97993 915.66 224.97993"></polygon><polygon id="Path" fill="#FFFFFF" points="862.07 58.3099299 814.62 58.3099299 712.57 224.98993 765.51 224.98993 766.47 223.39993 766.47 223.39993 803.95 155.83993 803.89 155.83993 829.88 109.09993 845.15 224.98993 893.31 224.98993"></polygon><polygon id="Path" fill="#FFFFFF" points="230.38 224.98993 279.74 224.98993 303.04 114.91993 253.68 114.91993"></polygon><polygon id="Path" fill="#FFFFFF" points="265.73 58.3099299 256.91 99.7899299 306.33 99.7899299 314.75 58.3099299"></polygon></g><g id="Group-2"><path d="M33.5501905,397.929601 C33.9154386,390.258148 34.3296954,382.343857 34.8366817,374.258476 C26.2596191,347.476825 21.9031898,319.494785 21.9276123,291.340551 C21.9276123,142.933801 141.183863,22.199419 287.773759,22.199419 C371.971638,22.199419 447.147341,62.0358416 495.894342,124.064234 L518.485214,117.137849 C487.837077,75.6623297 446.882945,43.147178 399.790464,22.900336 C347.032275,0.379015667 288.838976,-5.70612743 232.647454,5.42254096 C176.455932,16.5511873 124.818019,44.3881873 84.3310785,85.3763765 C43.8447917,126.365118 16.3485285,178.643037 5.35613972,235.531003 C-5.63624902,292.41897 0.374359221,351.332972 22.6199484,404.745605 C25.6182542,411.92752 28.8891333,418.953247 32.4325856,425.822785 C32.8741543,413.780259 33.2721657,403.879117 33.5501905,397.929601 Z" id="Path" fill="url(#linearGradient-1)"></path><path d="M563.718078,205.591447 C563.39031,206.50271 563.068005,207.41943 562.718386,208.31978 C559.11294,217.787643 554.4641,226.826611 548.85927,235.270258 C552.923591,253.913505 554.966677,272.939265 554.961214,292.019592 C554.961214,438.743905 435.451606,558.119404 288.562459,558.119404 C243.240364,558.179427 198.661209,546.617296 159.094171,524.539077 L131.446956,533.640797 C181.263293,565.895154 239.827208,582.014148 299.150998,579.798741 C358.474788,577.583334 415.671364,557.142661 462.939307,521.268351 C510.20725,485.391858 545.24563,435.825134 563.275591,379.327897 C581.308284,322.830115 581.450317,262.152526 563.690764,205.56962 L563.718078,205.591447 Z" id="Path" fill="url(#linearGradient-2)"></path><path d="M547.566644,139.493671 C547.566644,139.493671 354.186117,198.138222 353.564404,198.138222 C353.256298,198.138222 323.947715,180.818186 292.493394,171.80824 C259.75163,162.440101 222.33876,160.968752 222.33876,160.968752 C188.414089,143.560545 155.028604,148.872831 121.824681,161.999247 L137.813181,176.795397 C60.8362001,215.425194 64.4399398,365.971189 58.4208692,433.107683 C58.4208692,434.474329 84.1422177,350.320886 84.1422177,350.320886 L161.212731,328.96704 C161.212731,328.96704 155.314702,360.642371 147.457999,364.49433 C138.963077,368.654886 125.213847,371.988841 114.831775,374.468643 L65.2597218,528.607595 L82.3926158,522.733221 L127.414604,387.291972 C127.414604,387.291972 150.588576,380.883062 158.439777,376.320228 C163.705089,373.256295 167.622436,362.460892 168.799841,358.371975 C172.326555,346.15482 179.457008,323.880691 179.649574,307.216425 L84.0486856,333.877047 C89.3965253,265.869868 115.822116,201.49973 153.174466,188.593741 C186.725558,215.207522 215.987375,246.83436 239.933813,282.363303 L222.536828,291.913294 C216.567274,295.219696 211.940182,299.170847 210.047531,308.522454 L208.165884,320.491629 C207.186547,328.294738 210.630732,336.511147 214.454547,343.382953 L239.763254,386.156774 L232.858379,424.263057 L128.938628,461.250675 C119.943034,465.042016 116.680411,466.055979 112.130346,478.780116 L100.323284,516.599845 L115.888139,511.265516 C115.888139,511.265516 122.050259,489.112623 123.981423,483.49725 C125.912587,477.881877 133.554716,474.713242 140.289033,472.349164 C183.352348,457.244418 194.048027,453.469609 194.048027,453.469609 C194.048027,453.469609 191.973814,478.267624 177.646885,490.099033 C199.95706,482.450222 205.756055,470.894347 212.858998,447.286637 L248.131633,432.881745 L257.980021,386.415775 L324.662961,346.187884 C328.764072,343.71194 332.327648,340.436397 335.140765,336.555232 C337.954433,332.674068 339.961524,328.266634 341.042096,323.594136 L367.720774,208.834432 L531.517622,161.811885 C531.517622,161.811885 529.922074,177.423613 522.874149,192.53387 C519.573013,199.615081 516.145334,207.544936 508.299635,217.172076 C500.66851,226.540215 489.791268,238.581029 482.770853,241.419024 L380.985837,276.296055 L377.547154,293.527921 L482.374716,257.598352 C482.633305,272.940057 470.033971,296.657981 456.878945,310.881021 C442.496998,326.42111 407.818568,339.701825 383.538715,348.182746 C369.189779,353.191945 358.026439,357.187181 358.026439,357.187181 L352.612576,374.36945 L400.748636,358.724658 C400.660605,363.171769 396.649726,373.603467 394.823097,377.791577 C388.033762,393.44188 380.215572,403.085552 359.385406,411.362579 C338.55524,419.639605 227.191429,458.401658 227.191429,458.401658 L220.781724,476.652998 C220.781724,476.652998 321.251787,443.544892 368.105906,426.164238 C401.738976,413.688081 414.673926,386.570074 419.823698,351.863874 C475.024188,322.877749 496.630121,299.870702 500.085309,248.345937 C539.643918,218.538722 548.947619,178.200617 547.566644,139.493671 Z M146.445651,165.267075 C193.442819,151.275483 233.964259,174.728895 288.944673,258.6564 L254.931972,275.012069 C227.262954,236.426357 191.165035,198.364159 146.445651,165.267075 L146.445651,165.267075 Z M309.494243,336.422976 L251.17418,370.721387 L227.295965,332.372634 C225.241558,329.001757 224.437182,325.014236 225.023683,321.108824 L226.058039,314.033124 C226.371647,311.883963 226.723768,309.547438 228.18177,307.932812 C232.66031,302.973209 243.03688,297.870329 243.03688,297.870329 L296.108138,271.496262 L318.665898,305.271158 C321.293052,309.170509 322.639365,313.793961 322.517223,318.496767 C322.517773,319.020831 322.464405,319.543243 322.357668,320.056286 L322.357668,320.056286 C320.365983,327.005241 316.217556,332.058526 309.494243,336.422976 Z M330.087827,292.249445 C308.988069,261.852589 294.562106,236.310633 276.416863,213.99793 C265.666165,200.772322 252.500136,186.44458 234.976607,175.891647 C270.540842,177.759764 314.550482,190.693306 347.979982,214.295506 L330.087827,292.249445 Z" id="Shape" fill="#FFFFFF"></path></g></g></g></svg>